<?xml version="1.0" standalone="no"?>
<!DOCTYPE svg PUBLIC "-//W3C//DTD SVG 20010904//EN"
 "http://www.w3.org/TR/2001/REC-SVG-20010904/DTD/svg10.dtd">
<svg version="1.0" xmlns="http://www.w3.org/2000/svg"
 width="900.000000pt" height="1200.000000pt" viewBox="0 0 900.000000 1200.000000"
 preserveAspectRatio="xMidYMid meet">
<metadata>
Created by potrace 1.13, written by Peter Selinger 2001-2015
</metadata>
<g transform="translate(0.000000,1200.000000) scale(0.100000,-0.100000)"
fill="#000000" stroke="none">
<path d="M4400 11975 c13 -14 29 -25 36 -25 6 0 17 -7 24 -15 7 -8 30 -20 52
-25 21 -6 56 -27 77 -46 21 -18 41 -34 44 -34 11 0 73 -69 85 -94 6 -14 16
-26 22 -26 5 0 9 -3 8 -7 -2 -5 0 -8 3 -8 13 0 39 -28 54 -58 12 -24 13 -33 2
-45 -10 -13 -9 -15 5 -10 15 6 33 -22 29 -46 -1 -4 5 -19 14 -32 8 -13 15 -33
15 -44 0 -12 4 -29 9 -38 5 -10 11 -40 12 -67 3 -48 2 -50 -24 -53 -27 -3 -27
-2 -27 53 0 36 -5 62 -14 71 -30 29 -36 15 -36 -85 0 -56 -4 -103 -10 -106 -5
-3 -10 -35 -10 -71 l0 -64 -34 0 c-29 0 -37 -5 -50 -32 -23 -45 -21 -89 4 -95
17 -4 20 -14 20 -57 0 -47 -4 -55 -38 -89 -21 -21 -45 -53 -52 -72 -14 -35
-14 -35 -75 -35 -49 0 -66 -4 -80 -20 -10 -11 -23 -20 -30 -20 -6 0 -24 -13
-40 -30 -16 -16 -38 -30 -50 -30 -12 0 -34 -13 -50 -30 -16 -16 -34 -30 -41
-30 -19 0 -44 -58 -44 -100 0 -20 -4 -40 -9 -45 -5 -6 -11 -26 -13 -45 -2 -24
-10 -38 -25 -46 -13 -6 -31 -17 -40 -26 -10 -8 -52 -31 -95 -52 -42 -20 -82
-43 -88 -51 -7 -8 -18 -15 -25 -15 -22 0 -45 -36 -45 -72 0 -33 -32 -109 -61
-146 -25 -31 -39 -61 -39 -85 0 -61 -72 -137 -128 -137 -31 0 -92 -80 -92
-119 0 -11 -4 -23 -10 -26 -5 -3 -10 -35 -10 -70 0 -35 -4 -67 -10 -70 -6 -4
-10 -58 -10 -130 0 -72 4 -126 10 -130 6 -3 10 -26 10 -49 0 -26 6 -48 15 -56
41 -34 80 -159 55 -175 -5 -3 -10 -14 -10 -24 0 -23 -26 -75 -45 -91 -8 -7
-15 -18 -15 -24 0 -7 -13 -25 -30 -41 -16 -16 -30 -34 -30 -41 0 -6 -7 -17
-15 -24 -22 -18 -65 -111 -65 -141 0 -15 -4 -31 -10 -34 -5 -3 -10 -21 -10
-40 0 -19 -4 -37 -10 -40 -5 -3 -10 -23 -10 -44 0 -52 -20 -91 -47 -91 -12 0
-25 -4 -28 -10 -3 -5 -26 -10 -50 -10 -24 0 -47 -4 -50 -10 -3 -5 -19 -10 -36
-10 -24 0 -29 -4 -29 -25 0 -23 3 -25 49 -25 28 0 53 5 56 10 3 6 21 10 40 10
19 0 37 5 40 10 13 20 50 10 63 -17 22 -48 15 -76 -28 -118 l-40 -39 0 -86 c0
-106 -23 -159 -105 -240 -34 -33 -55 -63 -55 -77 0 -12 -4 -25 -10 -28 -6 -3
-10 -21 -10 -40 0 -19 -4 -37 -10 -40 -5 -3 -10 -22 -10 -41 0 -19 -4 -34 -10
-34 -5 0 -10 -8 -10 -18 0 -37 -42 -62 -103 -62 -31 0 -57 -4 -57 -10 0 -5 -9
-10 -20 -10 -13 0 -20 -7 -20 -18 0 -30 -21 -42 -72 -42 -41 0 -48 -3 -48 -20
0 -11 -4 -20 -10 -20 -5 0 -10 -9 -10 -19 0 -11 -13 -31 -30 -44 -16 -14 -30
-32 -30 -40 0 -24 -45 -57 -78 -57 -37 0 -82 -40 -82 -74 0 -40 -39 -66 -99
-66 -54 0 -81 -15 -81 -44 0 -9 -9 -21 -20 -28 -11 -7 -20 -23 -20 -35 0 -18
6 -23 25 -23 14 0 25 5 25 10 0 6 9 10 20 10 11 0 20 5 20 10 0 6 14 10 30 10
17 0 30 5 30 10 0 6 14 10 30 10 17 0 30 5 30 10 0 6 14 10 30 10 23 0 30 4
30 20 0 11 5 20 10 20 6 0 10 9 10 20 0 11 5 20 10 20 6 0 10 8 10 18 0 27 20
42 58 42 36 0 62 19 62 44 0 9 5 16 10 16 6 0 10 9 10 20 0 11 9 25 20 32 11
7 20 20 20 28 0 25 21 40 58 40 25 0 40 8 59 30 21 26 32 30 74 30 27 0 49 5
49 10 0 6 11 10 23 10 27 0 47 20 71 72 9 20 21 40 26 43 20 13 40 71 40 120
0 67 16 97 90 170 80 79 90 100 90 200 0 93 11 123 65 175 40 39 43 56 15 105
-34 61 -28 83 45 155 58 58 67 63 85 52 24 -14 116 -16 125 -2 3 6 41 10 84
10 78 0 125 14 151 45 7 9 30 15 54 15 37 0 47 6 99 58 31 32 57 62 57 68 0
12 55 64 87 82 29 16 43 15 43 -1 0 -8 9 -22 20 -32 11 -10 20 -26 20 -37 0
-10 5 -18 10 -18 6 0 10 -25 10 -55 0 -30 -4 -55 -10 -55 -5 0 -10 -11 -10
-25 0 -14 5 -25 10 -25 6 0 10 -22 10 -50 0 -27 5 -50 10 -50 6 0 10 -9 10
-20 0 -11 5 -20 10 -20 6 0 10 -13 10 -28 0 -16 3 -32 7 -35 3 -4 7 -19 8 -34
1 -20 -12 -41 -47 -78 l-48 -50 0 -91 c0 -78 -3 -93 -20 -109 -11 -10 -20 -28
-20 -39 0 -13 -24 -45 -60 -81 -38 -37 -60 -68 -60 -82 0 -12 -4 -25 -10 -28
-13 -8 -13 -112 1 -120 7 -5 3 -16 -12 -31 -26 -28 -19 -54 14 -54 43 0 57 28
57 117 0 88 8 102 74 133 58 27 106 76 106 109 0 16 -6 32 -12 34 -10 4 -10 6
0 6 8 1 12 23 12 77 0 50 5 80 14 89 11 11 14 -7 20 -113 7 -140 23 -252 37
-252 4 0 5 -22 2 -49 -3 -28 -2 -58 2 -68 16 -34 32 -124 23 -129 -12 -7 -10
-94 2 -94 6 0 10 -40 10 -100 0 -60 4 -100 10 -100 6 0 10 -55 10 -145 0 -138
-1 -145 -20 -145 -14 0 -20 -7 -20 -23 0 -12 9 -29 20 -37 14 -10 20 -26 20
-55 0 -29 -6 -45 -20 -55 -17 -12 -20 -26 -20 -82 0 -39 -4 -68 -10 -68 -5 0
-10 -10 -11 -22 0 -13 -3 -17 -6 -10 -9 24 -33 13 -33 -16 0 -18 -11 -38 -30
-57 -30 -28 -39 -68 -20 -80 16 -10 2 -23 -46 -45 -30 -14 -44 -27 -44 -40 0
-44 -57 -113 -115 -140 -22 -10 -53 -33 -70 -50 -16 -18 -40 -36 -53 -41 -41
-16 -24 -44 28 -47 42 -3 48 0 95 48 27 27 55 50 62 50 10 0 13 -22 13 -85 0
-63 -3 -85 -13 -85 -36 0 -127 -135 -127 -190 0 -34 -48 -78 -120 -113 -30
-14 -71 -42 -90 -62 -30 -31 -33 -38 -22 -55 6 -11 12 -50 12 -87 0 -61 -2
-69 -22 -78 -13 -6 -27 -20 -33 -31 -6 -12 -17 -29 -24 -38 -19 -23 -81 -147
-81 -163 0 -7 -9 -28 -20 -48 -11 -20 -20 -42 -20 -49 0 -23 -28 -71 -60 -101
-46 -44 -60 -80 -60 -157 0 -50 -4 -68 -13 -68 -8 0 -24 -11 -37 -25 -27 -29
-75 -55 -101 -55 -10 0 -21 -4 -24 -10 -3 -5 -16 -10 -29 -10 -33 0 -116 -95
-116 -133 0 -20 -24 -67 -34 -67 -17 0 -66 -53 -66 -72 0 -14 8 -18 42 -18 33
0 39 -3 30 -12 -17 -17 -15 -58 4 -65 8 -3 20 -1 26 5 14 14 38 -29 38 -69 0
-15 5 -31 10 -34 6 -3 10 -17 10 -30 0 -13 -4 -27 -10 -30 -5 -3 -10 -21 -10
-40 0 -19 -4 -37 -10 -40 -26 -16 8 -102 48 -120 13 -6 22 -19 22 -32 0 -12 5
-25 10 -28 6 -3 10 -16 10 -29 0 -12 5 -27 11 -33 16 -16 -10 -68 -55 -112
-36 -35 -36 -35 -36 -122 0 -81 -2 -91 -40 -164 -47 -92 -54 -160 -20 -220 22
-38 28 -149 10 -160 -6 -4 -10 -72 -10 -171 0 -103 -4 -164 -10 -164 -5 0 -10
-9 -10 -20 0 -11 -4 -20 -10 -20 -5 0 -10 -20 -10 -45 0 -41 2 -45 25 -45 18
0 25 5 25 20 0 11 5 20 10 20 6 0 10 9 10 20 0 11 5 20 10 20 6 0 10 39 10 98
0 92 2 100 25 122 14 13 32 37 40 54 17 33 21 161 5 171 -5 3 -10 19 -10 35 0
16 -9 45 -20 65 -22 38 -28 149 -10 160 6 3 10 26 10 50 0 24 4 47 10 50 5 3
10 21 10 40 0 19 4 37 10 40 5 3 10 26 10 49 0 47 7 53 80 65 41 7 55 39 21
48 -20 5 -21 12 -21 117 l0 112 -40 39 c-34 33 -40 45 -40 81 0 24 5 46 10 49
6 3 10 44 10 90 0 46 -4 87 -10 90 -5 3 -10 21 -10 40 0 19 -4 37 -10 40 -13
8 -13 152 0 160 6 3 10 16 10 28 0 16 13 28 48 44 26 13 55 23 64 23 8 0 21 7
28 15 7 9 29 23 49 32 58 26 91 62 91 99 0 18 5 36 10 39 6 3 10 30 10 59 0
48 3 55 45 96 52 51 75 91 75 131 0 15 5 31 10 34 6 3 10 21 10 40 0 19 5 37
10 40 6 3 10 17 10 30 0 13 5 27 10 30 6 3 10 16 10 28 0 15 10 26 33 36 46
20 87 61 87 87 0 13 4 26 10 29 5 3 10 44 10 91 0 82 1 84 24 84 13 0 29 7 36
15 7 9 29 23 49 32 55 25 99 72 131 139 16 33 38 68 50 79 l20 18 0 -144 1
-144 39 -44 c21 -24 37 -48 33 -54 -3 -5 0 -19 6 -30 29 -60 48 -183 44 -286
-5 -101 -6 -104 -40 -140 -46 -48 -70 -98 -54 -114 6 -6 11 -28 11 -49 0 -21
5 -38 10 -38 17 0 11 -26 -10 -45 -21 -19 -28 -79 -10 -90 6 -3 10 -17 10 -31
0 -13 -4 -24 -10 -24 -5 0 -10 -22 -10 -49 0 -28 -4 -53 -10 -56 -6 -3 -10
-30 -10 -58 0 -49 -2 -53 -32 -66 -38 -16 -88 -59 -88 -76 0 -7 -9 -20 -20
-30 -12 -11 -20 -31 -20 -51 0 -18 -5 -36 -10 -39 -6 -3 -10 -17 -10 -30 0
-13 -5 -27 -10 -30 -6 -3 -10 -14 -10 -24 0 -23 -26 -75 -45 -91 -8 -7 -15
-18 -15 -24 0 -15 -59 -71 -82 -79 -10 -4 -18 -16 -18 -27 0 -23 -16 -54 -44
-88 -16 -17 -30 -22 -71 -22 -47 0 -54 -3 -98 -48 -26 -26 -47 -53 -47 -59 0
-6 -9 -13 -21 -16 -28 -8 -21 -41 10 -45 15 -3 34 6 55 25 40 36 71 53 95 53
11 0 23 5 26 10 3 6 14 10 24 10 41 0 72 26 101 85 21 42 57 88 125 155 63 63
95 102 95 117 0 12 4 25 10 28 6 3 10 34 11 68 1 83 22 121 72 125 35 3 37 2
37 -27 0 -17 5 -31 10 -31 6 0 10 -13 10 -30 0 -16 5 -30 10 -30 13 0 13 -47
0 -55 -17 -11 -11 -37 10 -42 18 -5 20 -14 20 -97 0 -86 2 -94 25 -116 26 -24
75 -114 75 -137 0 -7 5 -13 10 -13 6 0 10 -18 10 -40 0 -22 5 -40 10 -40 6 0
10 -13 10 -30 0 -16 5 -30 10 -30 6 0 10 -18 10 -40 0 -22 5 -40 10 -40 6 0
10 -22 10 -50 0 -27 5 -50 10 -50 6 0 10 -22 10 -50 0 -27 5 -50 10 -50 13 0
13 -187 0 -195 -13 -8 -13 -132 0 -140 13 -8 13 -175 0 -175 -5 0 -10 -9 -10
-19 0 -11 -4 -23 -10 -26 -6 -3 -10 -15 -10 -25 0 -11 -9 -35 -20 -55 -11 -20
-20 -42 -20 -50 0 -8 -9 -30 -20 -50 -11 -20 -20 -44 -20 -55 0 -10 -4 -22
-10 -25 -6 -3 -10 -39 -10 -80 0 -41 -5 -77 -10 -80 -6 -3 -10 -21 -10 -40 0
-19 -4 -37 -10 -40 -5 -3 -10 -17 -10 -30 0 -13 -5 -27 -10 -30 -6 -3 -10 -21
-10 -40 0 -19 -4 -37 -10 -40 -5 -3 -10 -17 -10 -30 0 -13 -4 -27 -10 -30 -5
-3 -10 -21 -10 -40 0 -19 -4 -37 -10 -40 -17 -10 -12 -85 5 -85 10 0 15 10 15
30 0 17 5 30 10 30 6 0 10 9 10 19 0 11 5 23 10 26 6 3 10 17 10 30 0 13 4 27
10 30 6 3 10 15 10 25 0 11 9 35 20 55 11 20 20 44 20 55 0 10 4 22 10 25 6 3
10 17 10 30 0 13 4 27 10 30 6 3 10 15 10 25 0 11 9 35 20 55 23 41 25 58 8
85 -10 15 -10 22 0 32 6 6 12 20 12 30 0 9 9 33 20 53 11 20 20 41 20 48 0 19
49 113 65 127 8 7 15 18 15 25 0 7 7 18 15 25 37 31 61 139 35 155 -14 8 -14
415 0 415 6 0 10 31 10 73 0 61 -3 75 -20 87 -18 13 -20 26 -20 122 0 65 -4
108 -10 108 -5 0 -10 14 -10 30 0 17 -4 30 -10 30 -5 0 -10 18 -10 40 0 22 -4
40 -10 40 -13 0 -13 107 0 115 13 8 13 52 1 60 -5 3 -13 1 -16 -5 -15 -25 -35
13 -35 66 0 29 -4 56 -10 59 -6 4 -5 13 2 25 10 16 9 23 -11 44 -14 15 -19 26
-12 31 18 11 12 37 -9 42 -11 3 -20 14 -20 24 0 11 -4 19 -10 19 -5 0 -10 14
-10 30 0 17 -4 30 -10 30 -5 0 -10 25 -10 55 0 30 5 55 10 55 6 0 10 14 10 30
0 17 5 30 10 30 6 0 10 8 10 18 0 20 39 62 58 62 7 0 12 -6 12 -13 0 -21 37
-50 55 -44 9 4 15 18 15 35 0 46 -26 87 -65 102 -28 11 -35 19 -35 41 0 15 -4
29 -10 31 -6 2 -7 24 -3 57 5 44 13 61 48 99 32 35 40 50 33 62 -7 11 -1 31
21 74 26 48 31 70 31 125 0 37 -5 72 -11 78 -8 8 -8 13 0 17 15 9 14 49 -1 64
-9 9 -8 17 2 37 13 24 11 28 -18 58 -20 21 -32 43 -32 60 0 15 -4 27 -10 27
-5 0 -10 18 -10 39 0 22 -4 41 -9 43 -4 2 -6 51 -3 111 4 103 6 108 28 113 21
5 24 12 24 53 0 35 5 50 20 61 17 12 20 26 20 86 0 47 -4 74 -12 76 -13 5 -3
93 27 238 8 41 15 94 15 118 0 28 5 45 15 48 12 5 14 24 12 92 -1 61 2 86 11
89 16 6 17 170 1 175 -6 2 -13 45 -16 106 -4 89 -3 102 11 102 12 0 16 10 16
35 0 28 -4 35 -20 35 -15 0 -20 7 -20 25 0 14 5 25 10 25 6 0 10 43 10 108 0
103 1 107 24 118 22 10 29 7 65 -30 31 -31 41 -50 41 -73 0 -18 -4 -35 -10
-38 -6 -3 -10 -39 -10 -79 0 -60 3 -76 20 -91 11 -10 20 -23 20 -30 0 -6 14
-24 30 -40 16 -16 30 -34 30 -40 0 -7 9 -20 20 -30 17 -16 20 -31 20 -110 0
-79 3 -94 20 -110 12 -11 20 -31 20 -51 0 -18 5 -36 10 -39 6 -3 10 -16 10
-28 0 -15 25 -48 70 -92 56 -56 70 -75 70 -100 0 -17 -6 -37 -12 -43 -10 -10
-10 -17 0 -32 17 -29 15 -64 -8 -105 -11 -20 -20 -42 -20 -50 0 -8 -9 -30 -20
-50 -11 -20 -20 -44 -20 -55 0 -10 -4 -22 -10 -25 -6 -3 -10 -21 -10 -40 0
-19 -4 -37 -10 -40 -5 -3 -10 -46 -10 -95 0 -71 4 -97 20 -125 21 -37 27 -109
10 -120 -5 -3 -10 -35 -10 -70 0 -35 -5 -67 -10 -70 -13 -8 -13 -172 0 -180 6
-3 10 -21 10 -40 0 -19 4 -36 10 -40 5 -3 1 -20 -10 -41 -22 -38 -26 -69 -10
-79 6 -3 10 -17 10 -30 0 -13 5 -27 10 -30 17 -10 11 -62 -10 -100 -11 -20
-20 -44 -20 -55 0 -10 -4 -22 -10 -25 -5 -3 -10 -17 -10 -30 0 -13 5 -27 10
-30 6 -3 10 -18 10 -32 0 -15 7 -27 18 -29 26 -7 42 -52 42 -119 0 -37 7 -75
16 -94 15 -31 17 -31 35 -15 16 15 19 32 19 116 0 104 -5 121 -54 175 l-30 33
32 61 c33 64 39 93 22 104 -5 3 -10 21 -10 39 0 17 -6 38 -12 44 -10 10 -10
17 0 32 14 24 16 176 2 185 -5 3 -10 26 -10 50 0 24 -4 47 -10 50 -5 3 -10 17
-10 30 0 13 5 27 10 30 6 3 10 21 10 40 0 19 5 37 10 40 6 3 10 52 10 110 0
58 -4 107 -10 110 -13 8 -13 152 0 160 6 3 10 26 10 50 0 24 5 47 10 50 6 3
10 14 10 24 0 52 111 201 134 182 6 -5 22 -11 35 -13 27 -3 59 -49 60 -85 1
-12 6 -25 11 -28 6 -3 10 -14 10 -24 0 -19 39 -100 60 -126 7 -8 28 -15 50
-15 44 0 87 -20 120 -55 24 -25 64 -33 75 -15 3 6 25 10 48 10 42 -1 42 -1 75
-68 17 -37 32 -73 32 -79 0 -7 9 -28 20 -48 11 -20 20 -44 20 -55 0 -10 5 -22
10 -25 6 -3 10 -42 10 -86 0 -78 0 -79 25 -79 25 0 25 0 25 99 0 56 -4 103
-10 106 -5 3 -10 19 -10 34 0 15 -22 71 -49 124 -33 64 -45 97 -36 97 8 0 17
-4 20 -10 3 -6 26 -10 50 -10 24 0 47 -4 50 -10 3 -6 15 -10 26 -10 45 0 109
-53 109 -92 0 -21 5 -28 20 -28 11 0 20 -4 20 -10 0 -5 9 -10 20 -10 11 0 20
-4 20 -10 0 -5 14 -10 30 -10 17 0 30 -4 30 -10 0 -5 11 -10 25 -10 23 0 25 4
25 41 0 53 -18 69 -74 69 -35 0 -46 4 -46 16 0 19 -24 44 -42 44 -8 0 -30 16
-48 35 -53 55 -119 81 -135 55 -9 -15 -55 -12 -55 3 0 28 -36 47 -88 47 -28 0
-54 -4 -57 -10 -3 -5 -26 -10 -50 -10 -24 0 -47 5 -50 10 -3 6 -21 10 -40 10
-19 0 -37 5 -40 10 -3 6 -21 10 -38 10 -28 0 -35 6 -54 48 -13 26 -23 55 -23
64 0 9 -4 20 -10 23 -5 3 -10 17 -10 30 0 13 -4 27 -10 30 -5 3 -10 17 -10 30
0 24 -45 55 -80 55 -9 0 -24 8 -33 18 -9 10 -32 24 -52 32 -32 13 -35 17 -35
56 0 24 -4 46 -10 49 -5 3 -10 16 -10 29 0 13 -18 40 -45 66 -48 47 -75 91
-75 121 0 10 -4 21 -10 24 -5 3 -10 35 -10 70 0 35 -4 67 -10 70 -5 3 -10 28
-10 54 0 51 -31 125 -70 166 -51 54 -87 163 -60 180 28 18 -12 159 -55 195 -8
7 -15 18 -15 26 0 7 -12 19 -27 26 -24 11 -28 20 -31 59 -2 36 -10 53 -32 74
-21 20 -30 38 -30 61 0 18 -4 36 -10 39 -5 3 -10 13 -10 22 0 9 -8 23 -19 32
-17 15 -18 24 -9 116 4 55 10 120 12 145 2 25 7 53 11 63 4 9 5 26 2 37 -3 13
0 20 9 20 8 0 14 9 14 20 0 11 5 20 10 20 6 0 10 14 10 30 0 17 5 30 10 30 6
0 10 18 10 40 0 22 5 40 10 40 6 0 10 9 10 19 0 11 5 23 10 26 6 3 10 14 10
24 0 33 29 75 94 140 36 36 63 68 60 73 -3 4 -16 8 -30 8 -23 0 -24 2 -24 79
0 44 -4 81 -8 83 -5 2 -6 22 -4 45 2 24 8 41 12 38 11 -7 23 32 15 45 -3 5 -1
10 4 10 6 0 11 14 11 30 0 17 4 30 10 30 5 0 14 19 20 43 6 23 38 119 70 214
32 94 55 174 52 178 -4 3 1 3 11 -1 9 -3 17 -10 17 -15 0 -5 26 -9 58 -9 52 0
58 -2 70 -27 6 -15 12 -35 12 -44 0 -10 5 -21 10 -24 6 -3 10 -26 10 -50 0
-24 5 -47 10 -50 20 -13 10 -82 -22 -144 -25 -48 -29 -64 -20 -73 21 -21 44 3
82 80 19 40 39 72 44 72 4 0 17 -11 28 -25 27 -34 86 -61 101 -46 6 6 20 11
32 11 27 0 125 -99 125 -126 0 -11 4 -24 9 -30 5 -5 11 -20 13 -34 3 -27 42
-40 61 -21 13 13 50 14 62 2 6 -5 26 -11 45 -13 30 -3 38 -9 56 -45 11 -23 26
-49 34 -57 12 -15 14 -15 31 0 32 29 24 75 -21 119 l-40 39 22 23 c27 29 59
29 84 1 31 -37 45 -66 34 -73 -6 -3 -10 -17 -10 -30 0 -13 -4 -27 -10 -30 -5
-3 -10 -17 -10 -30 0 -13 5 -27 10 -30 6 -3 10 -26 10 -51 0 -56 -19 -58 -43
-3 -24 56 -51 51 -55 -12 -2 -35 2 -49 18 -64 11 -10 20 -23 20 -30 0 -7 9
-20 20 -30 11 -10 20 -23 20 -30 0 -6 14 -24 30 -40 17 -16 30 -35 30 -42 0
-7 20 -22 45 -33 34 -16 49 -30 64 -63 11 -23 36 -58 56 -77 30 -29 38 -33 54
-23 15 10 22 8 38 -10 11 -12 27 -39 37 -59 16 -37 19 -38 69 -38 49 0 53 -2
66 -32 20 -47 41 -68 68 -68 22 0 23 -4 23 -63 0 -60 2 -65 38 -100 21 -20 42
-37 48 -37 5 0 46 -37 92 -83 72 -72 82 -87 82 -118 0 -41 20 -87 50 -114 33
-30 50 -75 50 -131 l0 -53 52 -3 c51 -3 53 -4 79 -53 15 -27 28 -64 28 -82 1
-17 6 -35 11 -38 6 -3 10 -17 10 -30 0 -13 5 -27 10 -30 6 -3 10 -15 10 -26 0
-14 7 -19 25 -19 18 0 25 5 25 20 0 11 9 25 20 32 29 19 25 32 -17 54 -35 18
-38 23 -41 69 -1 28 -7 59 -12 70 -5 11 -10 29 -12 40 -2 13 -12 21 -30 23
-14 2 -34 12 -44 23 -9 10 -23 19 -31 19 -9 0 -13 14 -13 44 0 25 -4 48 -10
51 -5 3 -10 16 -10 29 0 23 -47 76 -68 76 -7 0 -12 14 -13 33 -1 40 -28 89
-57 102 -12 5 -22 19 -22 30 0 35 -97 115 -140 115 -15 0 -20 7 -20 24 0 14
-4 28 -10 31 -5 3 -10 34 -10 69 0 73 -14 92 -70 98 -23 2 -38 10 -45 24 -20
40 -36 53 -73 56 -35 3 -39 7 -70 71 l-34 67 -44 0 c-47 0 -58 16 -29 40 13
11 20 11 39 0 26 -14 46 -7 46 16 0 8 7 14 15 14 9 0 19 8 23 18 6 15 11 16
30 6 23 -11 23 -12 3 -17 -16 -4 -21 -13 -21 -40 0 -30 5 -38 32 -51 17 -9 48
-16 69 -16 21 0 40 -4 44 -10 3 -5 19 -2 37 9 31 17 33 17 76 -5 59 -30 102
-72 102 -100 0 -13 5 -26 10 -29 6 -3 10 -21 10 -40 0 -19 5 -37 10 -40 6 -3
10 -14 10 -24 0 -37 52 -117 122 -190 87 -90 98 -108 98 -160 0 -39 11 -55 54
-76 11 -6 22 -21 24 -33 5 -36 29 -73 54 -86 18 -9 24 -21 26 -56 3 -46 24
-80 49 -80 7 0 13 -7 13 -15 0 -10 -10 -15 -33 -15 -42 0 -67 -26 -67 -69 0
-41 18 -47 64 -22 56 32 96 23 96 -21 0 -10 5 -26 11 -36 9 -14 6 -26 -10 -55
-12 -21 -21 -54 -21 -75 0 -33 8 -45 60 -97 33 -33 60 -64 60 -71 0 -6 9 -19
20 -29 11 -10 20 -23 20 -29 0 -6 7 -20 15 -30 12 -16 17 -17 30 -6 13 11 15
9 15 -13 0 -14 5 -29 10 -32 6 -3 10 -15 10 -26 0 -10 6 -19 13 -19 41 0 167
-87 167 -115 0 -7 9 -20 20 -30 14 -13 17 -22 10 -29 -18 -18 -12 -91 10 -111
21 -19 29 -85 10 -85 -6 0 -10 -32 -10 -75 0 -43 4 -75 10 -75 6 0 10 -20 10
-45 0 -34 -5 -48 -20 -57 -11 -7 -20 -20 -20 -30 0 -9 -13 -28 -30 -41 -16
-14 -30 -35 -30 -46 0 -17 6 -21 35 -21 27 0 35 4 35 18 0 10 11 29 25 42 l25
23 0 -21 c0 -12 5 -22 10 -22 6 0 10 -13 10 -30 0 -20 5 -30 15 -30 12 0 15
13 15 55 0 30 -4 55 -10 55 -6 0 -10 35 -10 85 0 50 4 85 10 85 6 0 10 43 10
109 0 63 -4 112 -10 116 -5 3 -10 38 -10 77 0 52 -4 76 -16 90 -9 9 -26 37
-38 60 -11 23 -31 47 -43 54 -13 6 -31 18 -41 27 -10 10 -23 17 -28 17 -6 0
-28 18 -49 40 -21 22 -44 40 -50 40 -15 0 -47 37 -65 75 -17 37 -60 85 -75 85
-21 0 -55 46 -55 73 0 14 9 42 20 62 11 20 20 46 20 59 0 27 -24 79 -45 96 -9
7 -15 30 -15 54 0 34 -6 48 -30 71 -27 25 -30 35 -30 87 0 54 -2 58 -23 58
-38 0 -77 23 -77 46 0 11 -16 36 -35 54 -47 46 -65 83 -66 139 -1 62 -26 101
-85 131 -40 21 -50 31 -52 55 -3 33 -19 71 -40 97 -22 27 -62 110 -62 129 0
10 -4 21 -10 24 -5 3 -10 16 -10 29 0 32 -16 43 -172 120 -75 37 -142 74 -149
82 -6 8 -16 14 -22 14 -6 0 -19 7 -29 17 -10 9 -28 21 -41 27 -12 6 -24 23
-25 36 -2 14 -8 29 -13 35 -5 5 -9 26 -9 47 0 21 -6 48 -12 61 -19 33 -80 97
-93 97 -6 0 -21 10 -33 23 -20 21 -22 34 -22 123 l0 100 -40 39 -40 39 0 102
c0 58 -4 106 -10 109 -5 3 -10 15 -10 25 0 11 -9 35 -20 55 -11 20 -20 44 -20
55 0 12 -13 25 -37 36 -71 32 -83 50 -83 120 0 35 5 66 10 69 6 3 10 17 10 30
0 13 5 27 10 30 6 3 10 21 10 40 0 19 -4 37 -10 40 -6 4 -10 58 -10 131 0 76
4 124 10 124 6 0 10 7 10 15 0 9 11 27 25 41 14 14 25 33 26 42 0 10 3 12 6 5
6 -16 48 4 78 37 38 42 95 64 165 65 57 0 71 -4 110 -31 62 -43 147 -87 158
-81 4 3 6 -10 4 -29 -2 -19 -8 -34 -13 -34 -13 0 -11 -27 4 -53 30 -54 36 -57
123 -57 46 0 86 -4 89 -10 3 -5 26 -10 49 -10 26 0 48 -6 56 -15 18 -22 69
-45 100 -45 32 0 85 51 77 74 -7 18 -52 22 -62 6 -5 -8 -18 -4 -54 18 -2 1 2
13 9 27 12 23 11 28 -14 54 l-28 29 -34 -19 c-44 -24 -66 -24 -89 1 -10 11
-23 20 -29 20 -16 0 -72 63 -78 88 -6 20 -2 21 76 24 73 3 81 5 81 23 0 15 -8
21 -30 23 -16 1 -39 7 -50 12 -11 5 -42 11 -69 12 -46 3 -50 5 -58 33 -4 18
-4 31 2 33 18 6 12 97 -8 115 -10 10 -22 17 -26 17 -21 0 -36 33 -36 78 0 36
-5 54 -20 67 -11 10 -20 24 -20 32 0 18 -106 123 -124 123 -7 0 -17 7 -20 16
-3 8 -10 12 -16 9 -5 -3 -10 1 -10 9 0 9 -4 16 -10 16 -5 0 -10 5 -10 11 0 6
-10 19 -21 28 -12 10 -23 32 -26 51 -2 19 -14 45 -29 60 -16 16 -27 39 -29 60
-2 19 -17 114 -34 210 -32 183 -67 311 -107 394 -13 28 -24 55 -24 62 0 7 -3
14 -7 16 -13 5 -53 66 -53 80 0 19 -30 59 -40 53 -4 -2 -10 7 -13 22 -4 21 3
34 34 64 21 21 39 42 39 48 0 6 -19 11 -45 11 -25 0 -45 -3 -45 -8 0 -4 -9
-13 -21 -20 -19 -12 -20 -11 -14 7 l6 21 -762 0 -762 0 23 -25z m1210 -675
c15 -16 37 -30 48 -30 29 0 52 -10 52 -24 0 -6 9 -17 20 -24 11 -7 36 -36 54
-65 19 -29 41 -59 50 -66 25 -21 19 -31 -16 -31 -32 0 -78 33 -78 56 0 6 -7
17 -15 24 -17 14 -45 67 -45 87 0 15 -56 18 -65 3 -3 -5 -24 -10 -45 -10 -21
0 -40 -5 -42 -11 -3 -8 -16 -9 -43 -4 -31 7 -35 10 -18 13 24 4 36 33 36 84 0
26 3 28 40 28 30 0 45 -7 67 -30z m-728 -76 c4 -3 0 -21 -8 -39 -8 -19 -14
-50 -14 -70 0 -19 -4 -35 -10 -35 -5 0 -10 25 -10 55 0 30 5 55 10 55 6 0 10
9 10 20 0 19 11 26 22 14z m769 -79 c10 -6 26 -28 38 -51 12 -22 35 -53 51
-69 25 -24 34 -27 49 -18 19 12 68 6 90 -11 7 -6 21 -29 31 -51 24 -56 70
-219 70 -247 0 -13 5 -29 11 -35 14 -14 3 -143 -12 -143 -5 0 -9 -11 -9 -24 0
-13 -13 -50 -30 -81 -16 -31 -30 -70 -30 -85 0 -16 -4 -32 -10 -35 -6 -4 -10
-55 -10 -119 0 -100 -2 -115 -20 -131 -15 -14 -20 -31 -20 -71 0 -29 5 -56 10
-59 17 -11 11 -41 -21 -101 -24 -46 -28 -63 -20 -76 6 -10 11 -31 11 -47 0
-17 5 -33 10 -36 6 -3 10 -17 10 -30 0 -13 -4 -27 -10 -30 -5 -3 -10 -21 -10
-40 0 -19 -4 -37 -10 -40 -5 -3 -10 -34 -10 -69 0 -34 -4 -66 -10 -72 -5 -5
-11 -88 -12 -184 -3 -169 -4 -175 -25 -186 -13 -6 -31 -18 -41 -27 -17 -16
-19 -15 -32 18 -7 18 -40 60 -72 92 -52 51 -60 56 -78 45 -11 -6 -32 -12 -47
-12 -27 0 -73 34 -73 55 0 6 -13 24 -30 40 -29 27 -30 33 -30 112 l0 83 -45
20 c-34 16 -49 30 -64 63 -11 23 -31 54 -45 69 -14 15 -26 38 -26 52 0 14 -4
27 -9 30 -5 3 -3 35 4 73 15 81 9 137 -36 308 -17 66 -37 145 -45 175 -7 30
-14 96 -14 145 0 98 25 195 74 288 14 26 26 52 26 58 0 5 15 30 33 56 19 27
37 55 41 63 3 8 15 29 25 45 41 67 101 175 101 183 0 5 7 15 15 22 9 7 14 18
12 24 -2 5 4 18 12 28 12 14 31 18 92 18 54 0 80 4 88 14 13 15 27 15 52 1z
m-811 -110 c0 -8 -4 -15 -10 -15 -5 0 -10 7 -10 15 0 8 5 15 10 15 6 0 10 -7
10 -15z m-26 -52 c-9 -39 -20 -48 -39 -33 -15 12 -14 16 7 36 31 31 40 30 32
-3z m-122 -391 c16 -4 19 -10 14 -36 -15 -75 -18 -259 -7 -314 7 -31 16 -75
21 -97 44 -212 57 -385 28 -385 -22 0 -57 -56 -58 -92 0 -21 4 -38 9 -38 13 0
23 -62 11 -74 -5 -5 -10 -26 -10 -46 0 -20 -4 -40 -9 -45 -5 -6 -11 -26 -14
-45 -4 -37 -26 -80 -39 -80 -5 0 -8 -18 -8 -40 0 -35 -3 -40 -23 -40 -14 0
-39 -16 -62 -40 -21 -22 -44 -40 -50 -40 -6 0 -24 -13 -40 -30 -34 -35 -52
-37 -100 -10 -52 29 -71 26 -91 -16 -13 -26 -14 -38 -5 -47 14 -14 15 -233 1
-242 -5 -3 -10 -22 -10 -41 0 -27 -4 -34 -20 -34 -11 0 -30 -6 -43 -12 -32
-19 -97 -80 -97 -93 0 -13 -96 -105 -127 -123 -13 -6 -29 -12 -37 -12 -8 0
-40 -13 -71 -30 -59 -31 -89 -37 -100 -20 -3 6 -17 10 -30 10 -13 0 -27 -4
-30 -10 -3 -6 -48 -10 -99 -10 -80 0 -95 -3 -111 -20 -10 -11 -24 -20 -32 -20
-15 0 -18 26 -3 35 6 3 10 25 10 49 0 30 6 48 20 61 11 10 20 23 20 29 0 7 29
41 65 76 82 81 95 107 95 187 0 35 6 72 12 83 10 15 10 22 0 32 -6 6 -12 24
-12 39 0 15 -13 53 -30 84 -16 31 -30 70 -30 85 0 16 -4 32 -10 35 -5 3 -10
44 -10 90 0 46 5 87 10 90 6 3 10 41 10 83 0 58 5 88 23 124 12 26 27 48 33
48 6 0 19 9 29 20 10 11 28 20 39 20 13 0 40 20 66 48 52 54 70 83 70 111 0
11 5 23 10 26 6 3 10 17 10 30 0 13 5 27 10 30 6 3 10 21 10 39 0 17 4 36 9
42 5 5 11 25 13 44 3 32 8 38 66 66 34 17 70 38 80 46 9 8 33 22 53 31 20 9
42 23 49 32 7 8 17 15 23 15 6 0 24 12 39 27 22 21 28 36 28 68 0 22 4 45 9
51 6 5 11 29 13 54 3 42 6 46 47 67 24 11 60 36 80 55 56 51 74 58 162 58 75
0 81 2 87 23 6 18 8 14 10 -17 3 -28 8 -40 24 -44z m1204 -841 c-15 -14 -16
-14 -16 1 0 9 5 20 10 23 6 3 11 23 12 43 1 35 2 35 5 -7 3 -31 0 -49 -11 -60z
m-706 -287 c0 -22 -2 -25 -15 -14 -8 7 -15 19 -15 26 0 8 7 14 15 14 10 0 15
-10 15 -26z m793 -66 c21 -10 27 -20 27 -45 0 -17 5 -35 10 -38 6 -3 10 -21
10 -40 0 -19 5 -37 10 -40 6 -3 10 -43 10 -89 0 -75 2 -85 25 -106 46 -43 69
-110 44 -126 -8 -4 -8 -9 0 -17 6 -6 11 -28 11 -49 0 -21 6 -48 13 -61 20 -36
70 -88 93 -97 36 -14 54 -65 54 -151 0 -43 5 -81 10 -84 18 -11 11 -51 -13
-73 l-23 -22 -29 30 c-16 17 -38 30 -50 30 -21 0 -69 45 -92 87 -16 27 -17 60
-3 68 6 3 10 35 10 70 0 35 -4 67 -10 70 -5 3 -10 26 -10 50 0 24 5 47 10 50
6 3 10 29 10 57 0 51 -19 88 -45 88 -7 0 -20 9 -30 20 -25 28 -42 25 -130 -20
-43 -22 -83 -40 -88 -40 -6 0 3 15 21 33 28 28 32 40 32 84 0 29 -4 55 -10 58
-5 3 -10 17 -10 30 0 13 5 27 10 30 6 3 10 17 10 29 0 15 7 26 20 29 13 3 20
14 20 30 0 14 5 29 10 32 6 3 10 35 10 71 0 71 8 77 63 52z m-1373 -265 c0
-34 -69 -93 -108 -93 -31 0 -72 -62 -72 -108 0 -20 -13 -40 -45 -72 l-45 -44
0 95 c0 61 4 99 12 107 7 7 30 12 53 13 49 1 94 25 115 65 9 16 26 30 38 32
12 2 22 8 22 13 0 5 7 9 15 9 8 0 15 -8 15 -17z m-55 -192 c3 -5 1 -12 -4 -15
-5 -3 -12 -22 -15 -41 -4 -21 -26 -57 -56 -91 -49 -56 -74 -112 -63 -140 3 -8
2 -14 -2 -14 -12 0 -35 28 -35 44 0 9 -4 16 -10 16 -5 0 -10 5 -10 10 0 14 66
80 80 80 25 0 60 49 60 85 0 19 5 35 10 35 6 0 10 9 10 20 0 20 24 28 35 11z
m-217 -2893 c16 -6 22 -12 15 -15 -7 -3 -13 -13 -13 -24 0 -27 -28 -35 -48
-15 -14 13 -14 20 -4 36 6 11 13 30 13 42 1 18 2 19 6 5 3 -10 17 -23 31 -29z
m-1091 -3250 c-2 -13 -4 -5 -4 17 -1 22 1 32 4 23 2 -10 2 -28 0 -40z"/>
<path d="M5597 8793 c-4 -3 -7 -14 -7 -23 0 -24 -23 -70 -35 -70 -6 0 -16 5
-21 10 -7 7 -20 0 -39 -20 -16 -16 -37 -30 -47 -30 -40 0 -118 -62 -118 -95 0
-11 5 -26 11 -32 8 -8 8 -13 0 -17 -7 -5 -11 -47 -11 -111 0 -58 -4 -107 -10
-110 -15 -9 -12 -35 6 -42 9 -3 27 6 45 23 25 24 29 35 29 80 0 29 -4 56 -10
59 -16 10 -10 107 9 140 16 27 23 30 73 33 40 2 61 8 73 22 10 11 24 20 31 20
15 0 44 54 44 82 0 10 6 18 13 18 17 0 69 54 60 63 -8 9 -88 9 -96 0z"/>
<path d="M5067 4442 c-14 -15 -17 -39 -17 -119 0 -87 3 -102 20 -118 11 -10
20 -23 20 -30 0 -7 9 -20 20 -30 11 -10 20 -24 20 -30 0 -7 7 -18 15 -25 18
-15 45 -68 45 -89 1 -20 24 -51 39 -51 6 0 11 13 11 29 0 17 5 33 10 36 6 3
10 21 10 39 0 25 -10 42 -45 76 -55 54 -75 91 -75 140 0 20 -4 40 -9 46 -6 5
-11 38 -13 74 -3 71 -19 87 -51 52z"/>
</g>
</svg>
